<mxfile host="app.diagrams.net" modified="2023-04-18T23:35:42.096Z" agent="Mozilla/5.0 (Windows NT 10.0; Win64; x64) AppleWebKit/537.36 (KHTML, like Gecko) Chrome/111.0.0.0 Safari/537.36" etag="A9Yu93P0v4RkV4EjVetm" version="21.1.9" type="github">
  <diagram name="Página-1" id="5jApxaj2PvURLEH8503U">
    <mxGraphModel dx="1707" dy="462" grid="1" gridSize="10" guides="1" tooltips="1" connect="1" arrows="1" fold="1" page="1" pageScale="1" pageWidth="827" pageHeight="1169" math="0" shadow="0">
      <root>
        <mxCell id="0" />
        <mxCell id="1" parent="0" />
        <mxCell id="6LlqlI6-_VYBKEo83jr6-12" value="" style="endArrow=none;html=1;rounded=0;entryX=0;entryY=0.5;entryDx=0;entryDy=0;exitX=1;exitY=0.5;exitDx=0;exitDy=0;" parent="1" edge="1">
          <mxGeometry width="50" height="50" relative="1" as="geometry">
            <mxPoint x="320" y="129.58" as="sourcePoint" />
            <mxPoint x="440" y="129.58" as="targetPoint" />
          </mxGeometry>
        </mxCell>
        <mxCell id="6LlqlI6-_VYBKEo83jr6-1" value="ARTIGO" style="rounded=0;whiteSpace=wrap;html=1;" parent="1" vertex="1">
          <mxGeometry x="200" y="100" width="120" height="60" as="geometry" />
        </mxCell>
        <mxCell id="6LlqlI6-_VYBKEo83jr6-2" value="AUTOR" style="rounded=0;whiteSpace=wrap;html=1;" parent="1" vertex="1">
          <mxGeometry x="440" y="100" width="120" height="60" as="geometry" />
        </mxCell>
        <mxCell id="6LlqlI6-_VYBKEo83jr6-3" value="PALAVRA-CHAVE" style="rounded=0;whiteSpace=wrap;html=1;" parent="1" vertex="1">
          <mxGeometry x="200" y="280" width="120" height="60" as="geometry" />
        </mxCell>
        <mxCell id="6LlqlI6-_VYBKEo83jr6-4" value="INSTITUIÇÃO" style="rounded=0;whiteSpace=wrap;html=1;" parent="1" vertex="1">
          <mxGeometry x="680" y="100" width="120" height="60" as="geometry" />
        </mxCell>
        <mxCell id="6LlqlI6-_VYBKEo83jr6-5" value="PERIÓDICO" style="rounded=0;whiteSpace=wrap;html=1;" parent="1" vertex="1">
          <mxGeometry x="-40" y="100" width="120" height="60" as="geometry" />
        </mxCell>
        <mxCell id="6LlqlI6-_VYBKEo83jr6-7" value="escreve" style="rhombus;whiteSpace=wrap;html=1;" parent="1" vertex="1">
          <mxGeometry x="330" y="110" width="100" height="40" as="geometry" />
        </mxCell>
        <mxCell id="6LlqlI6-_VYBKEo83jr6-10" value="" style="endArrow=none;html=1;rounded=0;entryX=0;entryY=0.5;entryDx=0;entryDy=0;exitX=1;exitY=0.5;exitDx=0;exitDy=0;" parent="1" source="6LlqlI6-_VYBKEo83jr6-5" target="6LlqlI6-_VYBKEo83jr6-1" edge="1">
          <mxGeometry width="50" height="50" relative="1" as="geometry">
            <mxPoint x="260" y="270" as="sourcePoint" />
            <mxPoint x="310" y="220" as="targetPoint" />
          </mxGeometry>
        </mxCell>
        <mxCell id="6LlqlI6-_VYBKEo83jr6-6" value="contém" style="rhombus;whiteSpace=wrap;html=1;" parent="1" vertex="1">
          <mxGeometry x="90" y="110" width="100" height="40" as="geometry" />
        </mxCell>
        <mxCell id="6LlqlI6-_VYBKEo83jr6-13" value="" style="endArrow=none;html=1;rounded=0;entryX=0;entryY=0.5;entryDx=0;entryDy=0;exitX=1;exitY=0.5;exitDx=0;exitDy=0;" parent="1" edge="1">
          <mxGeometry width="50" height="50" relative="1" as="geometry">
            <mxPoint x="560" y="129.57999999999998" as="sourcePoint" />
            <mxPoint x="680" y="129.57999999999998" as="targetPoint" />
          </mxGeometry>
        </mxCell>
        <mxCell id="6LlqlI6-_VYBKEo83jr6-8" value="vinculado" style="rhombus;whiteSpace=wrap;html=1;" parent="1" vertex="1">
          <mxGeometry x="570" y="110" width="100" height="40" as="geometry" />
        </mxCell>
        <mxCell id="6LlqlI6-_VYBKEo83jr6-14" value="" style="endArrow=none;html=1;rounded=0;entryX=0.5;entryY=1;entryDx=0;entryDy=0;exitX=0.5;exitY=0;exitDx=0;exitDy=0;" parent="1" source="6LlqlI6-_VYBKEo83jr6-3" target="6LlqlI6-_VYBKEo83jr6-1" edge="1">
          <mxGeometry width="50" height="50" relative="1" as="geometry">
            <mxPoint x="420" y="280" as="sourcePoint" />
            <mxPoint x="470" y="230" as="targetPoint" />
          </mxGeometry>
        </mxCell>
        <mxCell id="6LlqlI6-_VYBKEo83jr6-9" value="contém" style="rhombus;whiteSpace=wrap;html=1;" parent="1" vertex="1">
          <mxGeometry x="210" y="200" width="100" height="40" as="geometry" />
        </mxCell>
        <mxCell id="6LlqlI6-_VYBKEo83jr6-29" value="" style="ellipse;whiteSpace=wrap;html=1;aspect=fixed;fontStyle=1" parent="1" vertex="1">
          <mxGeometry x="-80" y="100" width="10" height="10" as="geometry" />
        </mxCell>
        <mxCell id="6LlqlI6-_VYBKEo83jr6-30" value="" style="endArrow=none;html=1;rounded=0;exitX=1;exitY=0.5;exitDx=0;exitDy=0;entryX=0;entryY=0.5;entryDx=0;entryDy=0;fontStyle=1" parent="1" source="6LlqlI6-_VYBKEo83jr6-29" edge="1">
          <mxGeometry width="50" height="50" relative="1" as="geometry">
            <mxPoint x="-70" y="104.80000000000001" as="sourcePoint" />
            <mxPoint x="-40" y="104.80000000000001" as="targetPoint" />
          </mxGeometry>
        </mxCell>
        <mxCell id="6LlqlI6-_VYBKEo83jr6-31" value="nome" style="text;html=1;align=center;verticalAlign=middle;resizable=0;points=[];autosize=1;strokeColor=none;fillColor=none;" parent="1" vertex="1">
          <mxGeometry x="-130" y="90" width="50" height="30" as="geometry" />
        </mxCell>
        <mxCell id="6LlqlI6-_VYBKEo83jr6-32" value="" style="ellipse;whiteSpace=wrap;html=1;aspect=fixed;fillColor=#000000;" parent="1" vertex="1">
          <mxGeometry x="-80" y="120" width="10" height="10" as="geometry" />
        </mxCell>
        <mxCell id="6LlqlI6-_VYBKEo83jr6-33" value="" style="endArrow=none;html=1;rounded=0;exitX=1;exitY=0.5;exitDx=0;exitDy=0;entryX=0;entryY=0.5;entryDx=0;entryDy=0;" parent="1" source="6LlqlI6-_VYBKEo83jr6-32" edge="1">
          <mxGeometry width="50" height="50" relative="1" as="geometry">
            <mxPoint x="-70" y="124.80000000000001" as="sourcePoint" />
            <mxPoint x="-40" y="124.80000000000001" as="targetPoint" />
          </mxGeometry>
        </mxCell>
        <mxCell id="6LlqlI6-_VYBKEo83jr6-34" value="código" style="text;html=1;align=center;verticalAlign=middle;resizable=0;points=[];autosize=1;strokeColor=none;fillColor=none;" parent="1" vertex="1">
          <mxGeometry x="-140" y="110" width="60" height="30" as="geometry" />
        </mxCell>
        <mxCell id="6LlqlI6-_VYBKEo83jr6-35" value="" style="ellipse;whiteSpace=wrap;html=1;aspect=fixed;" parent="1" vertex="1">
          <mxGeometry x="-80" y="100" width="10" height="10" as="geometry" />
        </mxCell>
        <mxCell id="6LlqlI6-_VYBKEo83jr6-36" value="" style="endArrow=none;html=1;rounded=0;exitX=1;exitY=0.5;exitDx=0;exitDy=0;entryX=0;entryY=0.5;entryDx=0;entryDy=0;" parent="1" source="6LlqlI6-_VYBKEo83jr6-35" edge="1">
          <mxGeometry width="50" height="50" relative="1" as="geometry">
            <mxPoint x="-70" y="104.80000000000001" as="sourcePoint" />
            <mxPoint x="-40" y="104.80000000000001" as="targetPoint" />
          </mxGeometry>
        </mxCell>
        <mxCell id="6LlqlI6-_VYBKEo83jr6-37" value="" style="ellipse;whiteSpace=wrap;html=1;aspect=fixed;" parent="1" vertex="1">
          <mxGeometry x="-80" y="140" width="10" height="10" as="geometry" />
        </mxCell>
        <mxCell id="6LlqlI6-_VYBKEo83jr6-38" value="" style="endArrow=none;html=1;rounded=0;exitX=1;exitY=0.5;exitDx=0;exitDy=0;entryX=0;entryY=0.5;entryDx=0;entryDy=0;" parent="1" source="6LlqlI6-_VYBKEo83jr6-37" edge="1">
          <mxGeometry width="50" height="50" relative="1" as="geometry">
            <mxPoint x="-70" y="144.8" as="sourcePoint" />
            <mxPoint x="-40" y="144.8" as="targetPoint" />
          </mxGeometry>
        </mxCell>
        <mxCell id="6LlqlI6-_VYBKEo83jr6-39" value="quali. CAPES" style="text;html=1;align=center;verticalAlign=middle;resizable=0;points=[];autosize=1;strokeColor=none;fillColor=none;" parent="1" vertex="1">
          <mxGeometry x="-180" y="130" width="100" height="30" as="geometry" />
        </mxCell>
        <mxCell id="6LlqlI6-_VYBKEo83jr6-40" value="" style="endArrow=none;html=1;rounded=0;entryX=0.5;entryY=1;entryDx=0;entryDy=0;exitX=0.375;exitY=0;exitDx=0;exitDy=0;exitPerimeter=0;" parent="1" edge="1">
          <mxGeometry width="50" height="50" relative="1" as="geometry">
            <mxPoint x="825" y="105" as="sourcePoint" />
            <mxPoint x="825" y="105" as="targetPoint" />
          </mxGeometry>
        </mxCell>
        <mxCell id="6LlqlI6-_VYBKEo83jr6-41" value="" style="ellipse;whiteSpace=wrap;html=1;aspect=fixed;" parent="1" vertex="1">
          <mxGeometry x="830" y="105" width="10" height="10" as="geometry" />
        </mxCell>
        <mxCell id="6LlqlI6-_VYBKEo83jr6-42" value="" style="endArrow=none;html=1;rounded=0;exitX=1;exitY=0.25;exitDx=0;exitDy=0;entryX=0;entryY=0.5;entryDx=0;entryDy=0;" parent="1" target="6LlqlI6-_VYBKEo83jr6-41" edge="1">
          <mxGeometry width="50" height="50" relative="1" as="geometry">
            <mxPoint x="800" y="110" as="sourcePoint" />
            <mxPoint x="835" y="110" as="targetPoint" />
          </mxGeometry>
        </mxCell>
        <mxCell id="6LlqlI6-_VYBKEo83jr6-43" value="" style="ellipse;whiteSpace=wrap;html=1;aspect=fixed;fillColor=#000000;" parent="1" vertex="1">
          <mxGeometry x="830" y="125" width="10" height="10" as="geometry" />
        </mxCell>
        <mxCell id="6LlqlI6-_VYBKEo83jr6-44" value="" style="endArrow=none;html=1;rounded=0;exitX=1;exitY=0.25;exitDx=0;exitDy=0;entryX=0;entryY=0.5;entryDx=0;entryDy=0;" parent="1" target="6LlqlI6-_VYBKEo83jr6-43" edge="1">
          <mxGeometry width="50" height="50" relative="1" as="geometry">
            <mxPoint x="800" y="130" as="sourcePoint" />
            <mxPoint x="835" y="130" as="targetPoint" />
          </mxGeometry>
        </mxCell>
        <mxCell id="6LlqlI6-_VYBKEo83jr6-45" value="" style="ellipse;whiteSpace=wrap;html=1;aspect=fixed;" parent="1" vertex="1">
          <mxGeometry x="830" y="145" width="10" height="10" as="geometry" />
        </mxCell>
        <mxCell id="6LlqlI6-_VYBKEo83jr6-46" value="" style="endArrow=none;html=1;rounded=0;exitX=1;exitY=0.25;exitDx=0;exitDy=0;entryX=0;entryY=0.5;entryDx=0;entryDy=0;" parent="1" target="6LlqlI6-_VYBKEo83jr6-45" edge="1">
          <mxGeometry width="50" height="50" relative="1" as="geometry">
            <mxPoint x="800" y="150" as="sourcePoint" />
            <mxPoint x="835" y="150" as="targetPoint" />
          </mxGeometry>
        </mxCell>
        <mxCell id="6LlqlI6-_VYBKEo83jr6-47" value="endereço" style="text;html=1;align=center;verticalAlign=middle;resizable=0;points=[];autosize=1;strokeColor=none;fillColor=none;" parent="1" vertex="1">
          <mxGeometry x="840" y="95" width="70" height="30" as="geometry" />
        </mxCell>
        <mxCell id="6LlqlI6-_VYBKEo83jr6-48" value="código" style="text;html=1;align=center;verticalAlign=middle;resizable=0;points=[];autosize=1;strokeColor=none;fillColor=none;" parent="1" vertex="1">
          <mxGeometry x="840" y="115" width="60" height="30" as="geometry" />
        </mxCell>
        <mxCell id="6LlqlI6-_VYBKEo83jr6-49" value="nome" style="text;html=1;align=center;verticalAlign=middle;resizable=0;points=[];autosize=1;strokeColor=none;fillColor=none;" parent="1" vertex="1">
          <mxGeometry x="840" y="135" width="50" height="30" as="geometry" />
        </mxCell>
        <mxCell id="6LlqlI6-_VYBKEo83jr6-50" value="" style="endArrow=none;html=1;rounded=0;exitX=1;exitY=0.25;exitDx=0;exitDy=0;entryX=0.5;entryY=0;entryDx=0;entryDy=0;" parent="1" target="6LlqlI6-_VYBKEo83jr6-51" edge="1">
          <mxGeometry width="50" height="50" relative="1" as="geometry">
            <mxPoint x="555" y="160" as="sourcePoint" />
            <mxPoint x="555" y="190" as="targetPoint" />
          </mxGeometry>
        </mxCell>
        <mxCell id="6LlqlI6-_VYBKEo83jr6-51" value="" style="ellipse;whiteSpace=wrap;html=1;aspect=fixed;fillColor=#000000;" parent="1" vertex="1">
          <mxGeometry x="550" y="190" width="10" height="10" as="geometry" />
        </mxCell>
        <mxCell id="6LlqlI6-_VYBKEo83jr6-52" value="" style="endArrow=none;html=1;rounded=0;exitX=1;exitY=0.25;exitDx=0;exitDy=0;entryX=0.5;entryY=0;entryDx=0;entryDy=0;" parent="1" target="6LlqlI6-_VYBKEo83jr6-53" edge="1">
          <mxGeometry width="50" height="50" relative="1" as="geometry">
            <mxPoint x="445" y="160" as="sourcePoint" />
            <mxPoint x="445" y="190" as="targetPoint" />
          </mxGeometry>
        </mxCell>
        <mxCell id="6LlqlI6-_VYBKEo83jr6-53" value="" style="ellipse;whiteSpace=wrap;html=1;aspect=fixed;" parent="1" vertex="1">
          <mxGeometry x="440" y="190" width="10" height="10" as="geometry" />
        </mxCell>
        <mxCell id="6LlqlI6-_VYBKEo83jr6-54" value="nome" style="text;html=1;align=center;verticalAlign=middle;resizable=0;points=[];autosize=1;strokeColor=none;fillColor=none;" parent="1" vertex="1">
          <mxGeometry x="420" y="190" width="50" height="30" as="geometry" />
        </mxCell>
        <mxCell id="6LlqlI6-_VYBKEo83jr6-57" value="" style="endArrow=none;html=1;rounded=0;exitX=1;exitY=0.25;exitDx=0;exitDy=0;entryX=0.5;entryY=0;entryDx=0;entryDy=0;" parent="1" target="6LlqlI6-_VYBKEo83jr6-58" edge="1">
          <mxGeometry width="50" height="50" relative="1" as="geometry">
            <mxPoint x="485" y="160" as="sourcePoint" />
            <mxPoint x="485" y="190" as="targetPoint" />
          </mxGeometry>
        </mxCell>
        <mxCell id="6LlqlI6-_VYBKEo83jr6-58" value="" style="ellipse;whiteSpace=wrap;html=1;aspect=fixed;" parent="1" vertex="1">
          <mxGeometry x="480" y="190" width="10" height="10" as="geometry" />
        </mxCell>
        <mxCell id="6LlqlI6-_VYBKEo83jr6-59" value="e-mail" style="text;html=1;align=center;verticalAlign=middle;resizable=0;points=[];autosize=1;strokeColor=none;fillColor=none;" parent="1" vertex="1">
          <mxGeometry x="455" y="190" width="60" height="30" as="geometry" />
        </mxCell>
        <mxCell id="6LlqlI6-_VYBKEo83jr6-60" value="cód. de registro" style="text;html=1;align=center;verticalAlign=middle;resizable=0;points=[];autosize=1;strokeColor=none;fillColor=none;" parent="1" vertex="1">
          <mxGeometry x="500" y="190" width="110" height="30" as="geometry" />
        </mxCell>
        <mxCell id="6LlqlI6-_VYBKEo83jr6-61" value="" style="ellipse;whiteSpace=wrap;html=1;aspect=fixed;fontStyle=1" parent="1" vertex="1">
          <mxGeometry x="160" y="280" width="10" height="10" as="geometry" />
        </mxCell>
        <mxCell id="6LlqlI6-_VYBKEo83jr6-62" value="" style="endArrow=none;html=1;rounded=0;exitX=1;exitY=0.5;exitDx=0;exitDy=0;entryX=0;entryY=0.5;entryDx=0;entryDy=0;fontStyle=1" parent="1" source="6LlqlI6-_VYBKEo83jr6-61" edge="1">
          <mxGeometry width="50" height="50" relative="1" as="geometry">
            <mxPoint x="170" y="284.8" as="sourcePoint" />
            <mxPoint x="200" y="284.8" as="targetPoint" />
          </mxGeometry>
        </mxCell>
        <mxCell id="6LlqlI6-_VYBKEo83jr6-63" value="" style="ellipse;whiteSpace=wrap;html=1;aspect=fixed;" parent="1" vertex="1">
          <mxGeometry x="160" y="280" width="10" height="10" as="geometry" />
        </mxCell>
        <mxCell id="6LlqlI6-_VYBKEo83jr6-64" value="" style="endArrow=none;html=1;rounded=0;exitX=1;exitY=0.5;exitDx=0;exitDy=0;entryX=0;entryY=0.5;entryDx=0;entryDy=0;" parent="1" source="6LlqlI6-_VYBKEo83jr6-63" edge="1">
          <mxGeometry width="50" height="50" relative="1" as="geometry">
            <mxPoint x="170" y="284.8" as="sourcePoint" />
            <mxPoint x="200" y="284.8" as="targetPoint" />
          </mxGeometry>
        </mxCell>
        <mxCell id="6LlqlI6-_VYBKEo83jr6-65" value="palavra" style="text;html=1;align=center;verticalAlign=middle;resizable=0;points=[];autosize=1;strokeColor=none;fillColor=none;" parent="1" vertex="1">
          <mxGeometry x="100" y="270" width="60" height="30" as="geometry" />
        </mxCell>
        <mxCell id="mu46nb32tU5kHiiCdh9W-3" value="" style="endArrow=none;html=1;rounded=0;exitX=0.5;exitY=1;exitDx=0;exitDy=0;entryX=0.5;entryY=0;entryDx=0;entryDy=0;" edge="1" parent="1" source="mu46nb32tU5kHiiCdh9W-4">
          <mxGeometry width="50" height="50" relative="1" as="geometry">
            <mxPoint x="295" y="70" as="sourcePoint" />
            <mxPoint x="295" y="100" as="targetPoint" />
          </mxGeometry>
        </mxCell>
        <mxCell id="mu46nb32tU5kHiiCdh9W-4" value="" style="ellipse;whiteSpace=wrap;html=1;aspect=fixed;" vertex="1" parent="1">
          <mxGeometry x="290" y="61" width="10" height="10" as="geometry" />
        </mxCell>
        <mxCell id="mu46nb32tU5kHiiCdh9W-7" value="nome" style="text;html=1;align=center;verticalAlign=middle;resizable=0;points=[];autosize=1;strokeColor=none;fillColor=none;" vertex="1" parent="1">
          <mxGeometry x="270" y="41" width="50" height="30" as="geometry" />
        </mxCell>
        <mxCell id="mu46nb32tU5kHiiCdh9W-11" value="" style="endArrow=none;html=1;rounded=0;exitX=0.5;exitY=1;exitDx=0;exitDy=0;entryX=0.5;entryY=0;entryDx=0;entryDy=0;" edge="1" parent="1" source="mu46nb32tU5kHiiCdh9W-12">
          <mxGeometry width="50" height="50" relative="1" as="geometry">
            <mxPoint x="260" y="70" as="sourcePoint" />
            <mxPoint x="260" y="100" as="targetPoint" />
          </mxGeometry>
        </mxCell>
        <mxCell id="mu46nb32tU5kHiiCdh9W-12" value="" style="ellipse;whiteSpace=wrap;html=1;aspect=fixed;" vertex="1" parent="1">
          <mxGeometry x="255" y="41" width="10" height="10" as="geometry" />
        </mxCell>
        <mxCell id="mu46nb32tU5kHiiCdh9W-14" value="resumo" style="text;html=1;align=center;verticalAlign=middle;resizable=0;points=[];autosize=1;strokeColor=none;fillColor=none;" vertex="1" parent="1">
          <mxGeometry x="225" y="21" width="70" height="30" as="geometry" />
        </mxCell>
        <mxCell id="mu46nb32tU5kHiiCdh9W-15" value="" style="endArrow=none;html=1;rounded=0;exitX=0.5;exitY=1;exitDx=0;exitDy=0;entryX=0.5;entryY=0;entryDx=0;entryDy=0;" edge="1" parent="1" source="mu46nb32tU5kHiiCdh9W-16">
          <mxGeometry width="50" height="50" relative="1" as="geometry">
            <mxPoint x="220" y="70" as="sourcePoint" />
            <mxPoint x="220" y="100" as="targetPoint" />
          </mxGeometry>
        </mxCell>
        <mxCell id="mu46nb32tU5kHiiCdh9W-16" value="" style="ellipse;whiteSpace=wrap;html=1;aspect=fixed;" vertex="1" parent="1">
          <mxGeometry x="215" y="61" width="10" height="10" as="geometry" />
        </mxCell>
        <mxCell id="mu46nb32tU5kHiiCdh9W-17" value="núm. pags" style="text;html=1;align=center;verticalAlign=middle;resizable=0;points=[];autosize=1;strokeColor=none;fillColor=none;" vertex="1" parent="1">
          <mxGeometry x="180" y="41" width="80" height="30" as="geometry" />
        </mxCell>
        <mxCell id="mu46nb32tU5kHiiCdh9W-21" value="" style="endArrow=none;html=1;rounded=0;exitX=1;exitY=0.25;exitDx=0;exitDy=0;entryX=0.5;entryY=0;entryDx=0;entryDy=0;" edge="1" parent="1" target="mu46nb32tU5kHiiCdh9W-22">
          <mxGeometry width="50" height="50" relative="1" as="geometry">
            <mxPoint x="315" y="160" as="sourcePoint" />
            <mxPoint x="315" y="190" as="targetPoint" />
          </mxGeometry>
        </mxCell>
        <mxCell id="mu46nb32tU5kHiiCdh9W-22" value="" style="ellipse;whiteSpace=wrap;html=1;aspect=fixed;fillColor=#000000;" vertex="1" parent="1">
          <mxGeometry x="310" y="190" width="10" height="10" as="geometry" />
        </mxCell>
        <mxCell id="mu46nb32tU5kHiiCdh9W-23" value="código" style="text;html=1;align=center;verticalAlign=middle;resizable=0;points=[];autosize=1;strokeColor=none;fillColor=none;" vertex="1" parent="1">
          <mxGeometry x="285" y="190" width="60" height="30" as="geometry" />
        </mxCell>
        <mxCell id="mu46nb32tU5kHiiCdh9W-24" value="" style="endArrow=none;html=1;rounded=0;exitX=1;exitY=0.25;exitDx=0;exitDy=0;entryX=0.5;entryY=0;entryDx=0;entryDy=0;" edge="1" parent="1" target="mu46nb32tU5kHiiCdh9W-25">
          <mxGeometry width="50" height="50" relative="1" as="geometry">
            <mxPoint x="210" y="160" as="sourcePoint" />
            <mxPoint x="210" y="190" as="targetPoint" />
          </mxGeometry>
        </mxCell>
        <mxCell id="mu46nb32tU5kHiiCdh9W-25" value="" style="ellipse;whiteSpace=wrap;html=1;aspect=fixed;fillColor=#FFFFFF;" vertex="1" parent="1">
          <mxGeometry x="205" y="190" width="10" height="10" as="geometry" />
        </mxCell>
        <mxCell id="mu46nb32tU5kHiiCdh9W-26" value="nome de&lt;br&gt;arquivos" style="text;html=1;align=center;verticalAlign=middle;resizable=0;points=[];autosize=1;strokeColor=none;fillColor=none;" vertex="1" parent="1">
          <mxGeometry x="145" y="175" width="70" height="40" as="geometry" />
        </mxCell>
      </root>
    </mxGraphModel>
  </diagram>
</mxfile>
